<svg width="83" height="76" viewBox="0 0 83 76" fill="none" xmlns="http://www.w3.org/2000/svg">
<path d="M4 2C6.66035 2 9.18619 3.09496 11.6471 3.33333C13.6398 3.52637 15.153 6 17 6" stroke="#6100FF" stroke-width="3" stroke-linecap="round"/>
<path d="M73.3198 64.9021C79.5273 64.9021 81.0053 64.8232 81.0053 58.3145C81.0053 54.252 77.6945 52.2673 74.4177 50.6289" stroke="#6100FF" stroke-width="3" stroke-linecap="round"/>
<circle cx="37.5" cy="38.5" r="37.5" fill="#52FF00"/>
<path d="M6.51505 27C5.70939 27.1423 4.77822 32.7599 4.71581 33.8621C4.62194 35.52 4.25027 37.1319 4.25027 38.7687C4.25027 39.9315 3.88604 41.0493 4.03638 42.2175C4.377 44.8645 7.94287 44.1248 9.09438 43.4619C11.3335 42.173 9.36366 39.1681 8.27654 37.8798C7.58066 37.0552 6.65417 36.2181 5.83562 35.6398C4.55462 34.7349 5.71545 35.5281 6.52763 35.7998C7.59581 36.1573 9.19912 36.7831 10.1261 35.6043C10.9416 34.5673 11.3301 32.6365 10.7678 31.231C10.3533 30.195 6.64906 26.6213 6.28857 27.64" stroke="black" stroke-width="3" stroke-linecap="round"/>
<path d="M16.4041 27.928C14.7265 28.1895 13.3862 34.7045 13.3196 36.2813C13.2348 38.2916 12.6354 43.7045 15.113 43.7045C21.7979 43.7045 21.0524 35.196 21.0524 29.2159" stroke="black" stroke-width="3" stroke-linecap="round"/>
<path d="M54.4689 36.2803C53.9172 36.4535 53.2817 38.4834 53.11 39.1602C52.7483 40.5857 52.3639 42.4697 52.7954 43.9601C53.579 46.6665 55.421 47.1601 57.1866 47.1601" stroke="black" stroke-width="3" stroke-linecap="round"/>
<path d="M62.3956 38.8402C62.3956 41.4397 61.5435 43.4041 61.2129 45.8801C61.0573 47.0448 60.9373 48.401 60.5838 49.4" stroke="black" stroke-width="3" stroke-linecap="round"/>
<path d="M64.6604 51C64.6604 48.6052 65.4611 45.1995 66.3716 43.1779C67.1296 41.4948 68.8619 41.2355 70.2217 41.4002C70.7968 41.4698 70.9371 43.2974 70.9892 43.9601C71.1276 45.7204 69.9084 46.4073 68.976 47.0001C67.7236 47.7964 67.5822 47.0429 66.4722 46.5201" stroke="black" stroke-width="3" stroke-linecap="round"/>
<path d="M24.5916 29.5301C25.0533 29.6116 25.6269 31.5853 25.9505 32.1078C26.3877 32.8138 26.6022 33.7254 27.0325 34.4011C27.8258 35.6465 28.1504 37.4383 29.0079 38.6499C29.6669 39.581 30.1432 40.7051 30.5933 41.8499C31.1546 43.2774 32.1578 44.6417 32.5183 46.1698" stroke="black" stroke-width="2.91141" stroke-linecap="round"/>
<path d="M36.3685 29.2101C35.8258 29.3059 34.5146 30.9 34.1037 31.4501C33.4878 32.2745 32.719 32.9087 32.1157 33.7611C31.082 35.2216 30.1063 36.9558 29.0708 38.4188C28.1563 39.711 27.0331 40.658 26.1266 41.9388C25.4629 42.8766 24.2803 44.3097 23.4592 44.8898" stroke="black" stroke-width="2.91141" stroke-linecap="round"/>
<path d="M39.7656 48.7297C39.7656 45.9188 40.7545 42.4469 41.3509 39.7699C41.9339 37.1536 41.9184 34.46 42.0304 31.77C42.0615 31.0218 42.9689 29.2101 43.6157 29.2101C45.1698 29.2101 47.4381 30.2905 48.7115 31.2901C49.1284 31.6173 49.7423 31.163 49.9571 31.77" stroke="black" stroke-width="2.91141" stroke-linecap="round"/>
<path d="M42.2569 38.4899C43.8913 38.4899 45.5987 38.55 47.1891 39.1299C47.8903 39.3856 48.7838 39.7699 49.5042 39.7699" stroke="black" stroke-width="2.91141" stroke-linecap="round"/>
<path d="M4 2C4 12.2554 6.74619 17.6419 10.7009 26.0545C15.0195 35.2414 25.5411 39.6134 30.6838 47.8182C31.9434 49.8278 36.784 53.9357 39.0598 54.6273C41.5327 55.3788 48.2086 57.9448 50.0684 59.5273C55.6125 64.2448 66.8622 65 74 65" stroke="#6100FF" stroke-width="3" stroke-linecap="round"/>
</svg>
